<?xml version="1.0" encoding="UTF-8" standalone="no"?>
<svg
   width="1280"
   height="720"
   viewBox="0 0 1280 720"
   version="1.1"
   id="svg20"
   sodipodi:docname="the_quick.svg"
   inkscape:version="1.2 (1:1.2+202206011327+fc4e4096c5)"
   xmlns:inkscape="http://www.inkscape.org/namespaces/inkscape"
   xmlns:sodipodi="http://sodipodi.sourceforge.net/DTD/sodipodi-0.dtd"
   xmlns="http://www.w3.org/2000/svg"
   xmlns:svg="http://www.w3.org/2000/svg">
  <defs
     id="defs24">
    <rect
       x="-56.185074"
       y="-21.688688"
       width="59.621044"
       height="44.065639"
       id="rect902" />
  </defs>
  <sodipodi:namedview
     id="namedview22"
     pagecolor="#505050"
     bordercolor="#eeeeee"
     borderopacity="1"
     inkscape:pageshadow="0"
     inkscape:pageopacity="0"
     inkscape:pagecheckerboard="0"
     showgrid="false"
     inkscape:zoom="0.45343222"
     inkscape:cx="657.20958"
     inkscape:cy="355.06961"
     inkscape:window-width="1366"
     inkscape:window-height="709"
     inkscape:window-x="0"
     inkscape:window-y="33"
     inkscape:window-maximized="1"
     inkscape:current-layer="svg20"
     inkscape:showpageshadow="0"
     inkscape:deskcolor="#505050" />
  <g
     id="The"
     style="font-size:40px;line-height:1.25;-inkscape-font-specification:'sans-serif, Normal';letter-spacing:0px;word-spacing:0px;fill:#3584e4"
     transform="matrix(2.7803337,0,0,2.7803337,369.59563,194.02776)">
    <path
       d="m -38.941216,-25.759002 h 24.667969 v 3.320312 H -24.624809 V 3.401154 h -3.964844 V -22.43869 h -10.351563 z"
       id="path1166" />
    <path
       d="M 7.5626907,-9.801971 V 3.401154 h -3.59375 V -9.6847835 q 0,-3.1054685 -1.2109375,-4.6484375 -1.2109375,-1.542969 -3.63281247,-1.542969 -2.91015623,0 -4.58984373,1.855469 -1.6796875,1.855469 -1.6796875,5.0585938 V 3.401154 h -3.6132815 v -30.390625 h 3.6132815 v 11.914063 q 1.2890625,-1.972657 3.0273437,-2.949219 1.7578125,-0.976563 4.04296878,-0.976563 3.76953122,0 5.70312502,2.34375 1.9335937,2.324219 1.9335937,6.855469 z"
       id="path1168" />
    <path
       d="M 33.441597,-8.4347835 V -6.676971 H 16.918159 q 0.234375,3.7109375 2.226563,5.6640625 2.011719,1.93359379 5.585937,1.93359379 2.070313,0 4.003907,-0.5078125 1.953125,-0.5078125 3.867187,-1.52343749 v 3.3984375 q -1.933594,0.8203125 -3.964844,1.25 -2.03125,0.4296875 -4.121093,0.4296875 -5.234375,0 -8.300782,-3.04687501 -3.046875,-3.04687499 -3.046875,-8.24218749 0,-5.3710938 2.890625,-8.5156248 2.910157,-3.164063 7.832032,-3.164063 4.414062,0 6.972656,2.851563 2.578125,2.832031 2.578125,7.7148435 z m -3.59375,-1.0546875 q -0.03906,-2.949219 -1.660156,-4.707031 -1.601563,-1.757813 -4.257813,-1.757813 -3.007812,0 -4.824219,1.699219 -1.796875,1.699219 -2.070312,4.7851563 z"
       id="path1170" />
  </g>
  <g
     id="quick"
     style="font-size:40px;line-height:1.25;font-family:Chilanka;-inkscape-font-specification:'Chilanka, Normal';letter-spacing:0px;word-spacing:0px;fill:#2ec27e"
     transform="matrix(2.7803337,0,0,2.7803337,369.59563,194.02776)">
    <path
       d="m 113.48473,5.6472397 c 0,-1.953125 0.29296,-4.453125 0.29296,-6.19140626 0,-0.99609374 -0.37109,-1.83593754 -1.38671,-1.83593754 -0.6836,0 -1.17188,0.6445313 -1.23047,1.3476563 -0.0586,0.66406249 -0.11719,1.56249999 -0.17578,2.6953125 -1.79688,-2.8710938 -4.14063,-4.3164063 -6.95313,-4.3164063 -5.683593,0 -9.648437,4.0820313 -9.648437,9.8632813 0,2.8710933 1.015625,5.7617183 2.695313,7.7929683 1.40625,1.699219 3.183594,2.539063 5.351564,2.539063 0.23437,0 0.46875,0 0.70312,-0.01953 2.5,-0.195313 5.03907,-1.621094 7.63672,-4.316407 v 11.269532 c 0,0.820312 0.64453,1.230468 1.26953,1.230468 0.64453,0 1.26953,-0.410156 1.26953,-1.230468 v -4.785157 c 0,-5.703125 0,-9.7070308 0.0391,-12.0312496 0.0781,-0.234375 0.13672,-0.6835937 0.13672,-1.328125 0,-0.234375 0,-0.4492187 0,-0.6835937 z m -9.4336,-5.76171876 c 2.71485,0 4.80469,2.14843746 6.32813,6.42578126 0.19531,0.546875 0.33203,0.9375 0.42968,1.1914062 0,0.5664063 -0.0195,1.171875 -0.0195,1.7773438 -2.83203,3.6132808 -5.48828,5.5273438 -7.94922,5.7226558 -0.11718,0 -0.23437,0.01953 -0.33203,0.01953 -3.437497,0 -5.605465,-3.886719 -5.605465,-7.6953128 0,-4.4140625 2.753906,-7.44140626 7.148435,-7.44140626 z"
       id="path1173" />
    <path
       d="m 131.62926,-0.91526031 -0.13672,2.24609371 c -0.0586,1.2695313 -0.0781,2.4804688 -0.0781,3.6132813 0,0.5664062 0.0195,1.1328125 0.0195,1.6601562 -0.72265,3.8085941 -2.20703,6.4062501 -4.43359,7.8320311 -0.83984,0.546875 -1.62109,0.78125 -2.34375,0.78125 -1.75781,0 -3.06641,-1.464844 -3.75,-3.339844 -0.48828,-1.347656 -0.72266,-2.8906246 -0.72266,-4.6484371 0,-2.3242187 0.42969,-5 1.26954,-8.04687496 0.2539,-0.85937504 -0.50782,-1.58203124 -1.19141,-1.58203124 -0.54688,0 -1.11328,0.3515625 -1.26953,0.9179687 -0.87891,3.3203125 -1.32813,6.2304688 -1.32813,8.7890625 0,4.8046871 1.71875,8.8476561 4.98047,10.0585941 0.70313,0.253906 1.38672,0.371093 2.05078,0.371093 3.1836,0 5.83985,-2.636718 7.14844,-4.882812 0.42969,2.910156 1.13281,4.609375 2.10938,5.117187 1.05468,0.546875 2.03125,0 2.03125,-0.996093 0,-0.449219 -0.21485,-0.898438 -0.64454,-1.132813 -0.0391,-0.03906 -0.0781,-0.117187 -0.15625,-0.253906 -0.72265,-1.347656 -1.13281,-4.257813 -1.21093,-8.7695313 0.23437,-1.3476563 0.35156,-2.7734375 0.35156,-4.2773438 0,-1.09375 -0.0586,-2.22656246 -0.17578,-3.39843746 -0.0586,-0.60546874 -0.625,-1.15234374 -1.25,-1.15234374 -0.58594,0 -1.11328,0.4492187 -1.26953,1.09374999 z"
       id="path1175" />
    <path
       d="m 139.42223,-6.4035416 c 0,1.1132813 0.83984,2.03125 1.79687,2.03125 0.44922,0 0.95703,-0.1367187 1.52344,-0.4296875 1.01562,-0.3515625 1.66015,-1.25 1.66015,-2.2070312 0,-1.015625 -0.97656,-2.3046875 -2.1875,-2.3046875 -1.25,0 -2.79296,1.4648437 -2.79296,2.9101562 z m 3.16406,20.5468746 c 0.19531,-3.90625 0.19531,-7.0312496 0.19531,-11.2695308 0,-1.2890625 -0.0195,-2.59765626 -0.0391,-3.984375 0,-0.8203125 -0.60547,-1.2109375 -1.23047,-1.2109375 -0.64453,0 -1.28906,0.4101562 -1.28906,1.25 0.0195,1.01562499 0.0195,2.0898437 0.0195,3.1835937 0,3.0078125 0.0195,12.3242186 -0.56641,13.6523436 -0.0586,0.175781 -0.0976,0.351563 -0.0976,0.507813 0,0.722656 0.60546,1.289062 1.28906,1.289062 1.21094,0 1.64062,-1.328125 1.71875,-3.417969 z"
       id="path1177" />
    <path
       d="m 150.84801,9.7488022 c 0,-1.015625 0.21484,-2.109375 0.625,-3.2226563 1.11328,-2.9882812 3.80859,-5.72265621 7.53906,-5.72265621 0.76172,0 1.58203,0.1171875 2.44141,0.37109371 0.13671,0.039063 0.27343,0.058594 0.39062,0.058594 0.72266,0 1.19141,-0.68359376 1.19141,-1.32812501 0,-0.48828125 -0.25391,-0.97656249 -0.85938,-1.15234379 -1.15234,-0.3515625 -2.24609,-0.5273437 -3.32031,-0.5273437 -4.88281,0 -8.32031,3.6328125 -9.76563,7.4414062 -0.50781,1.3671875 -0.78125,2.7148438 -0.78125,4.0234375 0,0.9765624 0.15625,1.9335934 0.42969,2.8710934 0.87891,2.949219 3.4961,5.039063 7.48047,5.039063 1.77734,0 3.84766,-0.429688 6.17188,-1.269532 0.44921,-0.15625 0.85937,-0.625 0.85937,-1.230468 0,-0.683594 -0.60547,-1.230469 -1.26953,-1.230469 -0.15625,0 -0.29297,0.01953 -0.44922,0.07813 -2.03125,0.742187 -3.78906,1.09375 -5.29297,1.09375 -3.45703,0 -5.39062,-2.089844 -5.39062,-5.2929686 z"
       id="path1179" />
    <path
       d="m 182.89879,17.483177 c 0.68359,0 1.26953,-0.585937 1.26953,-1.269531 0,-1.347656 -0.99609,-2.8125 -3.00781,-4.394531 -2.01172,-1.582032 -4.60938,-3.1445316 -7.8125,-4.6679691 1.5625,-1.015625 2.79297,-1.8164062 4.51172,-3.4765625 1.73828,-1.6992187 2.59765,-3.10546871 2.59765,-4.23828121 0,-0.93749999 -0.42969,-1.56249999 -1.26953,-1.56249999 -0.68359,0 -1.26953,0.5859375 -1.26953,1.26953124 0,0.625 -0.68359,1.6015625 -2.03125,2.91015626 -1.34766,1.3085937 -3.18359,2.6171875 -5.52734,3.9648437 -0.3125,0.1953125 -0.50782,0.3320313 -0.58594,0.390625 0.0977,-4.1601562 0.27344,-9.5898437 0.5664,-16.2695312 0,-0.039063 0,-0.078125 0,-0.097656 0,-0.7812502 -0.625,-1.1914062 -1.25,-1.1914062 -0.625,0 -1.25,0.390625 -1.26953,1.171875 -0.44922,10.66406249 -0.68359,18.1835937 -0.68359,22.558593 0,2.050782 0.0586,3.417969 0.15625,4.082032 0.11719,0.722656 0.66406,1.054687 1.21094,1.054687 0.64453,0 1.30859,-0.449219 1.30859,-1.210937 0,-0.05859 0,-0.136719 -0.0195,-0.214844 -0.0781,-0.605469 -0.13672,-1.855469 -0.13672,-3.808594 0,-1.171875 0.0195,-2.5976558 0.0586,-4.2773433 0.13672,0.1171875 0.27344,0.2148438 0.42969,0.2734375 4.04297,1.7578118 7.28516,3.6132808 9.76563,5.5664058 1.15234,0.917969 1.71875,1.699219 1.71875,2.34375 0,0.527344 0.68359,1.09375 1.26953,1.09375 z"
       id="path1181" />
  </g>
  <g
     id="brown"
     style="font-size:40px;line-height:1.25;font-family:FreeMono;-inkscape-font-specification:'FreeMono, Normal';letter-spacing:0px;word-spacing:0px;fill:#e5a50a"
     transform="matrix(2.7803337,0,0,2.7803337,369.59563,194.02776)">
    <path
       d="m -84.576479,27.971115 v 11.04 q 2.92,-4.12 7.2,-4.12 3.64,0 6.16,2.56 2.52,2.56 2.52,6.28 0,3.76 -2.56,6.4 -2.52,2.64 -6.12,2.64 -4.4,0 -7.2,-4.16 v 3.52 h -3.8 q -1.08,0 -1.08,-0.84 0,-0.8 1.08,-0.8 h 2.16 v -20.88 h -2.16 q -1.08,0 -1.08,-0.84 0,-0.8 1.08,-0.8 z m 7.12,8.56 q -2.96,0 -5.04,2.12 -2.08,2.12 -2.08,5.16 0,3.04 2.08,5.2 2.08,2.12 5.04,2.12 2.92,0 5,-2.12 2.12,-2.12 2.12,-5.08 0,-3.12 -2.08,-5.24 -2.04,-2.16 -5.04,-2.16 z"
       id="path1184" />
    <path
       d="m -45.53654,38.371115 q -0.2,0 -1.24,-0.84 -1.04,-0.84 -2.04,-0.84 -1.36,0 -2.84,0.96 -1.44,0.96 -4.76,4 v 8.84 h 7.16 q 1.08,0 1.08,0.84 0,0.8 -1.08,0.8 h -12.64 q -1.08,0 -1.08,-0.84 0,-0.8 1.08,-0.8 h 3.84 v -13.4 h -3 q -1.08,0 -1.08,-0.84 0,-0.8 1.08,-0.8 h 4.64 v 4.08 q 2.76,-2.52 4.48,-3.48 1.72,-1 3.24,-1 1.6,0 2.8,0.96 1.2,0.96 1.2,1.52 0,0.36 -0.24,0.6 -0.24,0.24 -0.6,0.24 z"
       id="path1186" />
    <path
       d="m -30.336601,34.891115 q 3.84,0 6.48,2.64 2.64,2.6 2.64,6.4 0,3.68 -2.68,6.28 -2.68,2.56 -6.44,2.56 -3.8,0 -6.48,-2.6 -2.64,-2.6 -2.64,-6.36 0,-3.68 2.64,-6.28 2.68,-2.64 6.48,-2.64 z m 0,1.64 q -3.12,0 -5.32,2.12 -2.16,2.12 -2.16,5.16 0,3.04 2.16,5.2 2.2,2.12 5.32,2.12 3.08,0 5.28,-2.12 2.2,-2.12 2.2,-5.08 0,-3.16 -2.16,-5.28 -2.16,-2.12 -5.32,-2.12 z"
       id="path1188" />
    <path
       d="M -0.69666229,52.131115 H -2.6966623 l -3.64,-10.36 -3.56,10.36 h -2.0399997 l -3.36,-15.04 h -0.76 q -1.08,0 -1.08,-0.84 0,-0.8 1.08,-0.8 h 4.44 q 1.08,0 1.08,0.8 0,0.84 -1.08,0.84 h -2.12 l 2.88,12.8 3.4399997,-10.2 h 2.04 l 3.56,10.2 2.76000001,-12.8 H -1.0566623 q -1.08,0 -1.08,-0.84 0,-0.8 1.08,-0.8 h 4.44 q 1.08,0 1.08,0.8 0,0.84 -1.08,0.84 h -0.76 z"
       id="path1190" />
    <path
       d="m 18.423277,36.531115 q -0.72,0 -1.4,0.16 -0.64,0.12 -1.24,0.44 -0.56,0.28 -0.96,0.56 -0.4,0.24 -0.88,0.72 -0.44,0.48 -0.64,0.72 -0.16,0.2 -0.56,0.72 -0.36,0.48 -0.4,0.52 v 10.12 h 1.8 q 1.08,0 1.08,0.8 0,0.84 -1.08,0.84 H 8.9032767 q -1.12,0 -1.12,-0.84 0,-0.8 1.12,-0.8 h 1.8000003 v -13.4 H 9.3432767 q -1.08,0 -1.08,-0.84 0,-0.8 1.08,-0.8 h 3.0000003 v 2.76 q 1.72,-1.92 3.04,-2.6 1.32,-0.72 3.2,-0.72 2.68,0 4.48,1.56 1.8,1.56 1.8,3.88 v 10.16 h 1.36 q 1.08,0 1.08,0.8 0,0.84 -1.08,0.84 h -4.36 q -1.08,0 -1.08,-0.84 0,-0.8 1.08,-0.8 h 1.36 v -9.88 q 0,-1.72 -1.32,-2.88 -1.28,-1.2 -3.48,-1.2 z"
       id="path1192" />
  </g>
  <g
     id="fox"
     style="font-size:40px;line-height:1.25;font-family:Laksaman;-inkscape-font-specification:'Laksaman, Normal';letter-spacing:0px;word-spacing:0px;fill:#c64600"
     transform="matrix(2.7803337,0,0,2.7803337,369.59563,194.02776)">
    <path
       d="m 74.349411,30.407267 -0.68,1.72 q -1.36,-0.68 -2.96,-0.68 -4.76,0 -4.76,7.64 v 0.8 h 5.84 v 1.8 h -5.84 v 18.64 h -2.4 v -18.64 h -3.4 v -1.8 h 3.48 v -0.8 q 0,-9.64 7.28,-9.64 2.28,0 3.44,0.96 z"
       id="path1195" />
    <path
       d="m 94.469335,50.167267 q 0,4.56 -2.92,7.64 -2.88,3.08 -7.4,3.08 -4.56,0 -7.44,-3.04 -2.88,-3.08 -2.88,-7.68 0,-4.56 2.92,-7.64 2.92,-3.08 7.4,-3.08 4.52,0 7.4,3.08 2.92,3.08 2.92,7.64 z m -10.32,8.72 q 3.48,0 5.68,-2.52 2.24,-2.52 2.24,-6.2 0,-3.68 -2.2,-6.2 -2.2,-2.52 -5.72,-2.52 -3.48,0 -5.72,2.52 -2.2,2.52 -2.2,6.2 0,3.68 2.2,6.2 2.24,2.52 5.72,2.52 z"
       id="path1197" />
    <path
       d="m 115.22932,60.327267 h -2.76 l -6.84,-8.84 -6.800002,8.84 h -2.72 l 8.320002,-10.4 -7.760002,-10.04 h 2.64 l 6.480002,8.28 6.44,-8.28 h 2.6 l -7.84,9.96 z"
       id="path1199" />
  </g>
  <g
     id="jumps"
     style="font-size:40px;line-height:1.25;font-family:KacstDecorative;-inkscape-font-specification:'KacstDecorative, Normal';letter-spacing:0px;word-spacing:0px;fill:#c01c28"
     transform="matrix(2.7803337,0,0,2.7803337,369.59563,194.02776)">
    <path
       d="m 156.3429,40.615955 h 3.59375 V 62.88158 q 0,4.179688 -1.60157,6.054688 -1.58203,1.875 -5.11718,1.875 h -1.36719 v -3.046875 h 0.95703 q 2.05078,0 2.79297,-0.957031 0.74219,-0.9375 0.74219,-3.925782 z m 0,-8.515625 h 3.59375 v 4.550782 h -3.59375 z"
       id="path1202" />
    <path
       d="M 167.08508,53.858143 V 40.615955 h 3.59375 v 13.105469 q 0,3.105469 1.21094,4.667969 1.21094,1.542969 3.63281,1.542969 2.91016,0 4.58985,-1.855469 1.69922,-1.855469 1.69922,-5.058594 V 40.615955 h 3.59375 v 21.875 h -3.59375 V 59.13158 q -1.3086,1.992188 -3.04688,2.96875 -1.71875,0.957032 -4.00391,0.957032 -3.76953,0 -5.72265,-2.34375 -1.95313,-2.34375 -1.95313,-6.855469 z m 9.04297,-13.769531 z"
       id="path1204" />
    <path
       d="m 209.83899,44.815174 q 1.34766,-2.421875 3.22266,-3.574219 1.875,-1.152343 4.41406,-1.152343 3.41797,0 5.27344,2.402343 1.85546,2.382813 1.85546,6.796875 v 13.203125 h -3.61328 V 49.405018 q 0,-3.144531 -1.11328,-4.667969 -1.11328,-1.523437 -3.39844,-1.523437 -2.79296,0 -4.41406,1.855468 -1.62109,1.855469 -1.62109,5.058594 v 12.363281 h -3.61328 V 49.405018 q 0,-3.164063 -1.11328,-4.667969 -1.11329,-1.523437 -3.4375,-1.523437 -2.75391,0 -4.375,1.875 -1.6211,1.855468 -1.6211,5.039062 v 12.363281 h -3.61328 v -21.875 h 3.61328 v 3.398438 q 1.23047,-2.011719 2.94922,-2.96875 1.71875,-0.957031 4.08203,-0.957031 2.38281,0 4.04297,1.210937 1.67969,1.210938 2.48047,3.515625 z"
       id="path1206" />
    <path
       d="m 235.24915,59.209705 v 11.601563 h -3.61329 V 40.615955 h 3.61329 v 3.320313 q 1.13281,-1.953125 2.85156,-2.890625 1.73828,-0.957031 4.14062,-0.957031 3.98438,0 6.46485,3.164062 2.5,3.164063 2.5,8.320313 0,5.15625 -2.5,8.320312 -2.48047,3.164063 -6.46485,3.164063 -2.40234,0 -4.14062,-0.9375 -1.71875,-0.957032 -2.85156,-2.910157 z m 12.22656,-7.636718 q 0,-3.964844 -1.64063,-6.210938 -1.62109,-2.265625 -4.47265,-2.265625 -2.85157,0 -4.49219,2.265625 -1.62109,2.246094 -1.62109,6.210938 0,3.964843 1.62109,6.230468 1.64062,2.246094 4.49219,2.246094 2.85156,0 4.47265,-2.246094 1.64063,-2.265625 1.64063,-6.230468 z"
       id="path1208" />
    <path
       d="m 271.10852,41.260487 v 3.398437 q -1.52344,-0.78125 -3.16406,-1.171875 -1.64063,-0.390625 -3.39844,-0.390625 -2.67578,0 -4.02344,0.820313 -1.32812,0.820312 -1.32812,2.460937 0,1.25 0.95703,1.972656 0.95703,0.703125 3.84766,1.347657 l 1.23046,0.273437 q 3.82813,0.820313 5.42969,2.324219 1.6211,1.484375 1.6211,4.160156 0,3.046875 -2.42188,4.824219 -2.40234,1.777344 -6.62109,1.777344 -1.75782,0 -3.67188,-0.351563 -1.89453,-0.332031 -4.0039,-1.015625 v -3.710937 q 1.99218,1.035156 3.92578,1.5625 1.93359,0.507812 3.82812,0.507812 2.53906,0 3.90625,-0.859375 1.36719,-0.878906 1.36719,-2.460937 0,-1.464844 -0.99609,-2.246094 -0.97657,-0.78125 -4.31641,-1.503906 l -1.25,-0.292969 q -3.33984,-0.703125 -4.82422,-2.148438 -1.48437,-1.464843 -1.48437,-4.003906 0,-3.085937 2.1875,-4.765625 2.1875,-1.679687 6.21093,-1.679687 1.99219,0 3.75,0.292968 1.75782,0.292969 3.24219,0.878907 z"
       id="path1210" />
  </g>
  <g
     id="over"
     style="font-size:40px;line-height:1.25;-inkscape-font-specification:'sans-serif, Normal';letter-spacing:0px;word-spacing:0px;fill:#813d9c"
     transform="matrix(2.7803337,0,0,2.7803337,369.59563,194.02776)">
    <path
       d="m -41.184494,81.507614 q -2.890625,0 -4.570313,2.265625 -1.679687,2.246094 -1.679687,6.171875 0,3.925781 1.660156,6.191406 1.679688,2.246094 4.589844,2.246094 2.871094,0 4.550781,-2.265625 1.679688,-2.265625 1.679688,-6.171875 0,-3.886719 -1.679688,-6.152344 -1.679687,-2.285156 -4.550781,-2.285156 z m 0,-3.046875 q 4.6875,0 7.363281,3.046875 2.675781,3.046875 2.675781,8.4375 0,5.371094 -2.675781,8.4375 -2.675781,3.046876 -7.363281,3.046876 -4.707031,0 -7.382813,-3.046876 -2.65625,-3.066406 -2.65625,-8.4375 0,-5.390625 2.65625,-8.4375 2.675782,-3.046875 7.382813,-3.046875 z"
       id="path1213" />
    <path
       d="m -27.766525,78.988083 h 3.808593 l 6.835938,18.359375 6.835937,-18.359375 h 3.8085942 L -14.680588,100.86308 H -19.5634 Z"
       id="path1215" />
    <path
       d="m 17.194412,89.027145 v 1.757813 H 0.67097473 q 0.234375,3.710937 2.22656247,5.664062 2.0117188,1.933594 5.5859375,1.933594 2.0703123,0 4.0039063,-0.507812 1.953125,-0.507813 3.867187,-1.523438 v 3.398438 q -1.933593,0.820308 -3.964843,1.249998 -2.03125,0.42969 -4.121094,0.42969 -5.234375,0 -8.30078127,-3.046876 -3.04687503,-3.046875 -3.04687503,-8.242187 0,-5.371094 2.89062503,-8.515625 2.91015627,-3.164063 7.83203127,-3.164063 4.414062,0 6.972656,2.851563 2.578125,2.832031 2.578125,7.714843 z m -3.59375,-1.054687 q -0.03906,-2.949219 -1.660156,-4.707031 -1.601563,-1.757813 -4.2578125,-1.757813 -3.0078125,0 -4.8242188,1.699219 -1.796875,1.699219 -2.07031247,4.785156 z"
       id="path1217" />
    <path
       d="m 35.768631,82.347458 q -0.605469,-0.351563 -1.328125,-0.507813 -0.703125,-0.175781 -1.5625,-0.175781 -3.046875,0 -4.6875,1.992188 -1.621094,1.972656 -1.621094,5.683593 V 100.86308 H 22.956131 V 78.988083 h 3.613281 v 3.398437 q 1.132813,-1.992187 2.949219,-2.949218 1.816406,-0.976563 4.414062,-0.976563 0.371094,0 0.820313,0.05859 0.449219,0.03906 0.996094,0.136719 z"
       id="path1219" />
  </g>
  <g
     id="the"
     style="font-size:40px;line-height:1.25;font-family:Vemana2000;-inkscape-font-specification:'Vemana2000, Normal';letter-spacing:0px;word-spacing:0px;fill:#865e3c"
     transform="matrix(2.7803337,0,0,2.7803337,369.59563,194.02776)">
    <path
       d="m 81.284248,87.676842 v 6.210937 h 7.402344 v 2.792969 h -7.402344 v 11.875002 q 0,2.67578 0.722657,3.4375 0.742187,0.76172 2.988281,0.76172 h 3.691406 v 3.00781 h -3.691406 q -4.160156,0 -5.742188,-1.54297 -1.582031,-1.5625 -1.582031,-5.66406 V 96.680748 h -2.636719 v -2.792969 h 2.636719 v -6.210937 z"
       id="path1222" />
    <path
       d="m 111.59675,102.55965 v 13.20313 H 108.003 v -13.08594 q 0,-3.105467 -1.21094,-4.648436 -1.21094,-1.542969 -3.63281,-1.542969 -2.91016,0 -4.589845,1.855469 -1.679688,1.855466 -1.679688,5.058596 v 12.36328 H 93.276436 V 85.372154 h 3.613281 v 11.914063 q 1.289063,-1.972657 3.027344,-2.949219 1.757809,-0.976563 4.042969,-0.976563 3.76953,0 5.70312,2.34375 1.9336,2.324219 1.9336,6.855465 z"
       id="path1224" />
    <path
       d="m 137.47565,103.92684 v 1.75781 h -16.52343 q 0.23437,3.71094 2.22656,5.66407 2.01172,1.93359 5.58594,1.93359 2.07031,0 4.0039,-0.50781 1.95313,-0.50781 3.86719,-1.52344 v 3.39844 q -1.93359,0.82031 -3.96484,1.25 -2.03125,0.42969 -4.1211,0.42969 -5.23437,0 -8.30078,-3.04688 -3.04687,-3.04687 -3.04687,-8.24219 0,-5.371091 2.89062,-8.515622 2.91016,-3.164063 7.83203,-3.164063 4.41407,0 6.97266,2.851563 2.57812,2.832031 2.57812,7.714842 z m -3.59375,-1.05469 q -0.0391,-2.949215 -1.66015,-4.707027 -1.60156,-1.757813 -4.25781,-1.757813 -3.00782,0 -4.82422,1.699219 -1.79688,1.699219 -2.07032,4.785161 z"
       id="path1226" />
  </g>
  <g
     id="lazy"
     style="font-size:40px;line-height:1.25;font-family:Ubuntu;-inkscape-font-specification:'Ubuntu, Normal';letter-spacing:0px;word-spacing:0px;fill:#3d3846"
     transform="matrix(2.7803337,0,0,2.7803337,369.59563,194.02776)">
    <path
       d="m 171.48738,119.18957 q -3.44,-0.08 -4.88,-1.48 -1.44,-1.4 -1.44,-4.36 V 88.389574 l 3.72,-0.64 v 24.999996 q 0,0.92 0.16,1.52 0.16,0.6 0.52,0.96 0.36,0.36 0.96,0.56 0.6,0.16 1.48,0.28 z"
       id="path1229" />
    <path
       d="m 183.20733,116.10957 q 1.32,0 2.32,-0.04 1.04,-0.08 1.72,-0.24 v -6.2 q -0.4,-0.2 -1.32,-0.32 -0.88,-0.16 -2.16,-0.16 -0.84,0 -1.8,0.12 -0.92,0.12 -1.72,0.52 -0.76,0.36 -1.28,1.04 -0.52,0.64 -0.52,1.72 0,2 1.28,2.8 1.28,0.76 3.48,0.76 z m -0.32,-18.639996 q 2.24,0 3.76,0.6 1.56,0.56 2.48,1.64 0.96,1.039996 1.36,2.519996 0.4,1.44 0.4,3.2 v 13 q -0.48,0.08 -1.36,0.24 -0.84,0.12 -1.92,0.24 -1.08,0.12 -2.36,0.2 -1.24,0.12 -2.48,0.12 -1.76,0 -3.24,-0.36 -1.48,-0.36 -2.56,-1.12 -1.08,-0.8 -1.68,-2.08 -0.6,-1.28 -0.6,-3.08 0,-1.72 0.68,-2.96 0.72,-1.24 1.92,-2 1.2,-0.76 2.8,-1.12 1.6,-0.36 3.36,-0.36 0.56,0 1.16,0.08 0.6,0.04 1.12,0.16 0.56,0.08 0.96,0.16 0.4,0.08 0.56,0.12 v -1.04 q 0,-0.92 -0.2,-1.8 -0.2,-0.92 -0.72,-1.6 -0.52,-0.72 -1.44,-1.12 -0.88,-0.44 -2.32,-0.44 -1.84,0 -3.24,0.28 -1.36,0.24 -2.04,0.52 l -0.44,-3.079996 q 0.72,-0.32 2.4,-0.6 1.68,-0.32 3.64,-0.32 z"
       id="path1231" />
    <path
       d="m 210.84731,100.78957 q -0.84,0.92 -2.24,2.6 -1.36,1.68 -2.96,3.72 -1.56,2.04 -3.16,4.28 -1.56,2.24 -2.76,4.28 h 11.44 v 3.12 h -15.88 v -2.48 q 0.96,-1.76 2.36,-3.88 1.4,-2.12 2.92,-4.2 1.56,-2.12 3,-3.96 1.48,-1.88 2.56,-3.16 h -10.28 v -3.119996 h 15 z"
       id="path1233" />
    <path
       d="m 213.44726,122.66957 q 0.44,0.2 1.12,0.36 0.72,0.2 1.4,0.2 2.2,0 3.44,-1 1.24,-0.96 2.24,-3.16 -2.52,-4.8 -4.72,-10.16 -2.16,-5.4 -3.6,-10.919996 h 4 q 0.44,1.8 1.04,3.879996 0.64,2.08 1.4,4.28 0.76,2.2 1.64,4.4 0.88,2.2 1.84,4.24 1.52,-4.2 2.64,-8.32 1.12,-4.12 2.12,-8.479996 h 3.84 q -1.44,5.879996 -3.2,11.319996 -1.76,5.4 -3.8,10.12 -0.8,1.8 -1.68,3.08 -0.84,1.32 -1.88,2.16 -1.04,0.84 -2.36,1.24 -1.28,0.4 -2.92,0.4 -0.44,0 -0.92,-0.08 -0.48,-0.04 -0.96,-0.16 -0.44,-0.08 -0.84,-0.2 -0.36,-0.12 -0.52,-0.2 z"
       id="path1235" />
  </g>
  <g
     id="dog"
     style="font-size:40px;line-height:1.25;font-family:'Noto Sans Ugaritic';-inkscape-font-specification:'Noto Sans Ugaritic, Normal';letter-spacing:0px;word-spacing:0px;fill:#99c1f1"
     transform="matrix(2.7803337,0,0,2.7803337,369.59563,194.02776)">
    <path
       d="m 20.430187,124.02 v -11.83593 h 3.59375 v 30.39062 h -3.59375 v -3.28125 q -1.132813,1.95313 -2.871094,2.91016 -1.71875,0.9375 -4.140625,0.9375 -3.964844,0 -6.464844,-3.16406 -2.4804687,-3.16407 -2.4804687,-8.32032 0,-5.15625 2.4804687,-8.32031 2.5,-3.16406 6.464844,-3.16406 2.421875,0 4.140625,0.95703 1.738281,0.9375 2.871094,2.89062 z m -12.2460942,7.63672 q 0,3.96485 1.6210937,6.23047 1.6406255,2.2461 4.4921875,2.2461 2.851563,0 4.492188,-2.2461 1.640625,-2.26562 1.640625,-6.23047 0,-3.96484 -1.640625,-6.21093 -1.640625,-2.26563 -4.492188,-2.26563 -2.851562,0 -4.4921875,2.26563 -1.6210937,2.24609 -1.6210937,6.21093 z"
       id="path1238" />
    <path
       d="m 39.902843,123.21922 q -2.890625,0 -4.570313,2.26563 -1.679687,2.24609 -1.679687,6.17187 0,3.92578 1.660156,6.19141 1.679688,2.24609 4.589844,2.24609 2.871094,0 4.550781,-2.26562 1.679688,-2.26563 1.679688,-6.17188 0,-3.88672 -1.679688,-6.15234 -1.679687,-2.28516 -4.550781,-2.28516 z m 0,-3.04687 q 4.6875,0 7.363281,3.04687 2.675781,3.04688 2.675781,8.4375 0,5.3711 -2.675781,8.4375 -2.675781,3.04688 -7.363281,3.04688 -4.707031,0 -7.382813,-3.04688 -2.65625,-3.0664 -2.65625,-8.4375 0,-5.39062 2.65625,-8.4375 2.675782,-3.04687 7.382813,-3.04687 z"
       id="path1240" />
    <path
       d="m 70.293468,131.38329 q 0,-3.90625 -1.621094,-6.05469 -1.601562,-2.14844 -4.511719,-2.14844 -2.890625,0 -4.511718,2.14844 -1.601563,2.14844 -1.601563,6.05469 0,3.88671 1.601563,6.03515 1.621093,2.14844 4.511718,2.14844 2.910157,0 4.511719,-2.14844 1.621094,-2.14844 1.621094,-6.03515 z m 3.59375,8.47656 q 0,5.58594 -2.480469,8.30078 -2.480469,2.73437 -7.597656,2.73437 -1.894531,0 -3.574219,-0.29296 -1.679687,-0.27344 -3.261719,-0.85938 v -3.49609 q 1.582032,0.85937 3.125,1.26953 1.542969,0.41015 3.144532,0.41015 3.535156,0 5.292968,-1.85546 1.757813,-1.83594 1.757813,-5.56641 v -1.77734 q -1.113281,1.93359 -2.851563,2.89062 -1.738281,0.95703 -4.160156,0.95703 -4.023437,0 -6.484375,-3.0664 -2.460937,-3.06641 -2.460937,-8.125 0,-5.07813 2.460937,-8.14454 2.460938,-3.0664 6.484375,-3.0664 2.421875,0 4.160156,0.95703 1.738282,0.95703 2.851563,2.89062 v -3.32031 h 3.59375 z"
       id="path1242" />
  </g>
  <text
     xml:space="preserve"
     style="font-size:72px;line-height:1.25;font-family:sans-serif;letter-spacing:0px;word-spacing:0px;fill:#f6f5f4"
     x="69.64328"
     y="656.73224"
     id="text335"><tspan
       sodipodi:role="line"
       id="tspan333"
       x="69.64328"
       y="656.73224">kgjhg rtyuj5r ruyhr drtybert derte</tspan></text>
</svg>
